<svg width="32" height="45" viewBox="0 0 32 45" fill="none" xmlns="http://www.w3.org/2000/svg">
<path d="M31.7373 44.2958L22.6472 41.6367C21.918 41.4236 21.3875 40.581 21.3854 39.6326L21.3792 36.7741C23.2795 35.1698 24.8495 32.7953 25.9451 30.0896C25.9794 30.091 26.0147 30.0957 26.0486 30.0957C27.6679 30.0957 28.8876 28.4191 29.398 26.6755C29.6402 25.8495 29.5374 24.9627 29.1334 24.2559C29.8034 22.7712 30.18 21.1197 30.18 19.3789L30.1807 18.1412C30.1605 16.688 30.0046 15.4058 29.7037 14.2215C29.593 13.785 29.4658 13.3618 29.326 12.9637C28.0988 9.46828 25.9373 6.90617 23.2203 5.55403C22.4344 2.36934 19.5043 0 16.0004 0C12.4965 0 9.56636 2.36942 8.78053 5.55403C6.0635 6.90617 3.90209 9.46794 2.67514 12.9634C2.53462 13.3635 2.40714 13.7867 2.29678 14.2213C1.99588 15.4058 1.83995 16.6877 1.82007 18.1459V19.3783C1.82007 21.1191 2.19671 22.7706 2.86639 24.2553C2.46233 24.9621 2.35986 25.8489 2.60182 26.6752C3.11211 28.4187 4.33184 30.0954 5.95114 30.0954C5.9837 30.0954 6.01762 30.0911 6.05087 30.0897C7.14719 32.794 8.7185 35.1694 10.6209 36.7748L10.6147 39.6326C10.6127 40.5809 10.0818 41.4236 9.35287 41.6367L0.26278 44.2958C0.0677746 44.353 -0.0429182 44.5534 0.0156879 44.7434C0.0633247 44.8993 0.209659 45 0.368334 45C0.40329 45 0.439274 44.9953 0.474228 44.9849L9.56432 42.3258C10.6141 42.0187 11.3488 40.9118 11.3515 39.6342L11.3567 37.3501C12.7642 38.3453 14.3294 38.9226 16.0001 38.9226C17.6708 38.9226 19.2356 38.3453 20.6431 37.3494L20.6479 39.6339C20.6507 40.9114 21.3858 42.0187 22.4355 42.3255L31.5256 44.9846C31.5605 44.995 31.5962 44.9997 31.6311 44.9997C31.7898 44.9997 31.9362 44.899 31.9841 44.7431C32.0431 44.5534 31.9327 44.3527 31.7373 44.2958ZM28.6906 26.4772C28.2804 27.8788 27.3671 29.232 26.2262 29.3611C26.878 27.5798 27.3293 25.6797 27.5367 23.7776C27.9682 23.9372 28.2437 24.2236 28.4086 24.4658C28.79 25.0251 28.8956 25.777 28.6906 26.4772ZM3.311 26.4772C3.10572 25.777 3.21127 25.025 3.59236 24.4657C3.75686 24.2245 4.03102 23.9389 4.46044 23.7786C4.66641 25.6788 5.11776 27.5785 5.7703 29.3605C4.61704 29.2294 3.72089 27.8779 3.311 26.4772ZM16.0008 38.2036C9.84435 38.2036 5.06918 29.1953 5.06918 21.4597L5.17645 18.838C10.0803 19.1344 15.3553 15.555 17.4311 13.9697C17.721 13.7483 18.1121 13.7867 18.3609 14.0607C20.3511 16.2518 24.0221 19.8607 26.8008 20.0999L26.9324 21.4453C26.9324 29.1955 22.1574 38.2036 16.0008 38.2036ZM15.0577 28.9513C15.594 28.1012 16.1149 26.1001 16.12 26.0801C16.1594 25.9255 16.3195 25.8342 16.4778 25.8713C16.6358 25.9102 16.7311 26.0667 16.6913 26.2206C16.6694 26.3062 16.1427 28.3291 15.5594 29.253C15.4816 29.3768 15.5063 29.4253 15.5159 29.4437C15.632 29.6698 16.3469 29.8468 16.8182 29.8876C16.9799 29.9017 17.1002 30.0412 17.0858 30.1994C17.0721 30.3492 16.9436 30.4616 16.7925 30.4616C16.7843 30.4616 16.7753 30.4616 16.7664 30.4606C16.5241 30.4399 15.3003 30.3064 14.9888 29.702C14.9058 29.5404 14.8503 29.2791 15.0577 28.9513ZM8.52869 21.6259C8.01292 21.7259 7.49817 21.8995 7.0674 22.2217C7.44336 21.838 7.94474 21.5774 8.46289 21.3947C8.98484 21.2131 9.53623 21.1091 10.0952 21.0666C10.6545 21.0284 11.2251 21.0509 11.794 21.1626C12.3605 21.2787 12.9338 21.4693 13.4557 21.8688L13.4595 21.8714C13.674 22.0354 13.7117 22.3378 13.5435 22.5472C13.3755 22.7566 13.0654 22.7934 12.8512 22.6295C12.8299 22.6131 12.8087 22.5937 12.7912 22.5749C12.6699 22.4452 12.5164 22.3287 12.3491 22.2217C12.1223 22.0768 11.8662 21.9517 11.5969 21.8557C11.125 21.6868 10.6147 21.5878 10.0958 21.5463C9.57629 21.5088 9.0472 21.5279 8.52869 21.6259ZM18.5137 22.6057C18.3125 22.4264 18.2985 22.122 18.4818 21.9256C18.5 21.9062 18.5192 21.8885 18.5397 21.8727L18.5455 21.8684C19.0675 21.4693 19.6408 21.2786 20.2073 21.1622C20.7762 21.0505 21.3468 21.0281 21.9061 21.0662C22.4651 21.1087 23.0165 21.2127 23.5384 21.3944C24.0566 21.577 24.5579 21.8379 24.9339 22.2213C24.5034 21.8988 23.9884 21.7255 23.4726 21.6255C22.9537 21.5275 22.4246 21.5084 21.9054 21.5459C21.3865 21.5874 20.8763 21.6867 20.4044 21.8553C20.135 21.9514 19.879 22.0765 19.6521 22.2213C19.4845 22.3284 19.3314 22.4448 19.21 22.5746C19.0267 22.7713 18.7148 22.785 18.5137 22.6057ZM11.1149 27.0187C10.1286 27.0187 9.43902 26.6594 9.3955 26.636C9.27692 26.5724 9.2334 26.4272 9.29817 26.3115C9.3626 26.1947 9.51236 26.1519 9.63129 26.2151C9.64979 26.2248 9.8023 26.3031 10.0525 26.3804C9.80127 26.1352 9.64603 25.7967 9.64603 25.4226C9.64603 24.9653 9.87976 24.5626 10.2355 24.3174C9.66522 24.485 9.26016 24.8265 9.26016 25.2146C9.26016 25.3735 9.12821 25.5023 8.96542 25.5023C8.82594 25.5023 8.71456 25.406 8.68406 25.2792C8.40646 25.2467 7.72619 25.1102 7.52466 24.5265C7.48114 24.4011 7.55036 24.2649 7.67888 24.2228C7.80774 24.1796 7.94688 24.2482 7.99006 24.3733C8.10316 24.7008 8.5809 24.7847 8.75602 24.8048C8.76904 24.7704 8.78481 24.7369 8.80126 24.7038C8.48973 24.5917 8.08157 24.3706 8.00412 23.9632C7.97944 23.833 8.06752 23.7076 8.20084 23.6835C8.33449 23.6594 8.46233 23.7454 8.48734 23.8755C8.52538 24.0769 8.85438 24.2238 9.09874 24.2947C9.14809 24.2472 9.20429 24.2037 9.26119 24.1602C9.03842 24.0642 8.82252 23.9163 8.68097 23.6862C8.61106 23.5728 8.6491 23.4253 8.76528 23.3573C8.88077 23.2891 9.03226 23.3262 9.10216 23.4396C9.26118 23.6982 9.61897 23.7956 9.86915 23.8327C10.2036 23.7079 10.5844 23.6313 10.9998 23.6313C12.0111 23.6313 12.9001 24.0655 13.2113 24.7121C13.2805 24.856 13.2171 25.0273 13.0701 25.0948C12.9224 25.1621 12.7466 25.1005 12.678 24.957C12.5512 24.6938 12.2524 24.4797 11.8692 24.3482C12.2023 24.5954 12.421 24.9828 12.421 25.423C12.421 25.8291 12.2342 26.1891 11.9443 26.4373C12.178 26.3808 12.4206 26.2998 12.6698 26.1804C12.7911 26.1219 12.9385 26.1707 12.9988 26.2895C13.0584 26.4085 13.0087 26.5517 12.8867 26.6103C12.2469 26.917 11.6389 27.0187 11.1149 27.0187ZM22.6054 26.636C22.5622 26.6594 21.8723 27.0187 20.8863 27.0187C20.362 27.0187 19.754 26.917 19.1149 26.6099C18.9929 26.5514 18.9432 26.4082 19.0032 26.2891C19.0632 26.1707 19.2098 26.1218 19.3319 26.18C19.5796 26.2991 19.8216 26.3794 20.0553 26.4356C19.7664 26.1874 19.5803 25.8281 19.5803 25.4227C19.5803 24.9825 19.799 24.5951 20.1324 24.3479C19.7493 24.4793 19.4504 24.6934 19.3236 24.9567C19.254 25.1009 19.0776 25.1617 18.9316 25.0945C18.7842 25.0269 18.7208 24.8553 18.79 24.7118C19.1015 24.0655 19.9899 23.631 21.0015 23.631C21.4169 23.631 21.798 23.7076 22.1325 23.8324C22.4005 23.7922 22.7463 23.6889 22.8998 23.4393C22.9697 23.3249 23.1209 23.2884 23.2367 23.357C23.3532 23.4249 23.3913 23.5721 23.321 23.6858C23.1795 23.9163 22.9632 24.0639 22.7405 24.1599C22.797 24.203 22.8536 24.2468 22.9029 24.2943C23.1473 24.2238 23.4763 24.0769 23.5146 23.8755C23.5386 23.7454 23.6695 23.6588 23.8005 23.6832C23.9338 23.7073 24.0222 23.8324 23.9972 23.9625C23.9201 24.3703 23.5119 24.5914 23.2 24.7035C23.2165 24.7369 23.2323 24.7704 23.2453 24.8045C23.4204 24.7844 23.8985 24.7008 24.0116 24.3729C24.0548 24.2478 24.1939 24.1796 24.3224 24.2224C24.4509 24.2646 24.5202 24.4007 24.477 24.5262C24.2755 25.1099 23.5952 25.2467 23.3176 25.2788C23.2867 25.4056 23.1757 25.502 23.0362 25.502C22.8734 25.502 22.7415 25.3732 22.7415 25.2143C22.7415 24.8262 22.3364 24.4847 21.7658 24.3171C22.1215 24.5623 22.3553 24.9647 22.3553 25.4223C22.3553 25.7943 22.201 26.1311 21.9522 26.3757C22.211 26.2967 22.3649 26.2175 22.3693 26.2151C22.4879 26.1516 22.6377 26.1937 22.7028 26.3101C22.7682 26.4269 22.7247 26.5724 22.6054 26.636ZM19.2945 33.5612C19.2945 33.7201 19.1626 33.8489 18.9998 33.8489C18.8747 33.8489 18.7674 33.773 18.7249 33.6653C18.6708 33.6342 18.5635 33.598 18.4107 33.5613H18.2325C18.1406 34.2721 16.8085 34.3828 16.0004 34.3828C15.1923 34.3828 13.8602 34.2725 13.7684 33.5613H13.5902C13.4373 33.5981 13.3301 33.6342 13.2759 33.6653C13.2331 33.7727 13.1262 33.8489 13.0011 33.8489C12.8383 33.8489 12.7063 33.7201 12.7063 33.5612C12.7063 33.2435 13.1556 33.0524 13.7581 32.938C13.7913 32.8524 13.8551 32.7795 13.9431 32.7387L14.8623 32.3168C14.9117 32.2944 14.9651 32.2827 15.0193 32.2827C15.4247 32.2827 15.7698 32.3797 16.0005 32.5413C16.2312 32.3797 16.5763 32.2827 16.9817 32.2827C17.0359 32.2827 17.0893 32.2944 17.1387 32.3168L18.0579 32.7387C18.146 32.7791 18.2097 32.8521 18.2429 32.938C18.8454 33.0524 19.2945 33.2435 19.2945 33.5612ZM14.5538 18.4333C14.5538 18.1359 14.8006 17.8951 15.1052 17.8951C15.4099 17.8951 15.6567 18.1359 15.6567 18.4333C15.6567 18.7307 15.4099 18.9716 15.1052 18.9716C14.8006 18.9716 14.5538 18.7304 14.5538 18.4333ZM16.6724 17.6512C16.6724 17.396 16.8842 17.1893 17.1457 17.1893C17.4072 17.1893 17.619 17.396 17.619 17.6512C17.619 17.9065 17.4072 18.1132 17.1457 18.1132C16.8842 18.1132 16.6724 17.9065 16.6724 17.6512ZM9.72775 30.9251C9.56086 31.174 9.21917 31.2435 8.96454 31.0806C8.70991 30.9177 8.63827 30.5842 8.80518 30.3357C8.97207 30.0868 9.31376 30.0172 9.56839 30.1801C9.82336 30.3427 9.89466 30.6762 9.72775 30.9251ZM11.8087 31.3198C11.6655 31.5332 11.3721 31.5931 11.1534 31.4533C10.9348 31.3135 10.8734 31.0271 11.0167 30.8137C11.16 30.6003 11.4533 30.5404 11.672 30.6802C11.8906 30.8197 11.9516 31.1061 11.8087 31.3198ZM20.6198 31.1817C20.4529 31.4302 20.1112 31.5001 19.8566 31.3372C19.6016 31.1743 19.5303 30.8408 19.6972 30.5922C19.8641 30.3437 20.2058 30.2738 20.4604 30.4367C20.7151 30.5993 20.7867 30.9328 20.6198 31.1817ZM23.1918 31.5761C23.0486 31.7895 22.7552 31.8494 22.5365 31.7095C22.3179 31.5697 22.2565 31.2833 22.3995 31.0699C22.5427 30.8565 22.8361 30.7966 23.0547 30.9361C23.2737 31.0763 23.3351 31.3626 23.1918 31.5761ZM22.0112 29.9149C21.7925 29.775 21.7312 29.4887 21.8744 29.2752C22.0177 29.0618 22.3111 29.0019 22.5297 29.1418C22.7484 29.2816 22.8097 29.568 22.6664 29.7814C22.5232 29.9948 22.2298 30.0547 22.0112 29.9149Z" fill="#1F5073"/>
</svg>
