<svg width="37" height="36" viewBox="0 0 37 36" fill="none" xmlns="http://www.w3.org/2000/svg">
<path d="M30.064 14.9457C30.3912 15.4367 32.1367 18.0548 32.1367 19.2549C32.1367 20.6184 30.9914 21.764 29.6275 21.764C28.264 21.764 27.1184 20.6187 27.1184 19.2549C27.1184 18.0548 28.8094 15.4911 29.1911 14.9457C29.3548 14.673 29.8458 14.673 30.064 14.9457Z" fill="white"/>
<path d="M33.9456 23.9138C34.2728 24.4047 36.0183 27.0228 36.0183 28.2229C36.0183 29.5865 34.873 30.732 33.5091 30.732C32.1456 30.732 31 29.5867 31 28.2229C31 27.0228 32.691 24.4592 33.0727 23.9138C33.2364 23.6411 33.7274 23.6411 33.9456 23.9138Z" fill="white"/>
<path d="M27.9456 28.9138C28.2728 29.4047 30.0183 32.0228 30.0183 33.2229C30.0183 34.5865 28.873 35.732 27.5091 35.732C26.1456 35.732 25 34.5867 25 33.2229C25 32.0228 26.691 29.4592 27.0727 28.9138C27.2364 28.6411 27.7274 28.6411 27.9456 28.9138Z" fill="white"/>
<path d="M32 7.88839C32 8.8802 31.1773 9.7305 30.113 9.7305H24.5C24.8386 10.1556 25.0322 10.6752 25.0322 11.2421C25.0322 12.0451 24.645 12.8008 24.0162 13.226C24.6453 13.6983 25.0322 14.4068 25.0322 15.2099C25.0322 16.013 24.645 16.7686 24.0162 17.1938C24.6453 17.6661 25.0808 18.3746 25.0808 19.1777C25.0808 21.3505 23.0485 21.5867 22.1775 21.7283C15.8874 22.6257 14.2907 21.1613 8 19.3664V8.36047C10.4677 7.13228 14.8706 4.81781 15.8384 3.58984L18.6933 0.188965C18.8385 -6.06564e-06 19.0804 -0.0471973 19.274 0.0471798C20.8708 0.755691 21.4516 2.73954 20.387 4.15651L18.9838 6.04583H30.2096C31.1771 6.04605 31.9998 6.8963 31.9998 7.88817L32 7.88839Z" fill="white"/>
<path d="M4.99995 9.23821V18.7614C4.99995 19.4446 4.47146 19.9998 3.82113 19.9998L1.17882 20C0.528492 20 0 19.4448 0 18.7616V9.2384C0 8.5552 0.528492 8 1.17882 8H3.78055C4.47151 8 5 8.5552 5 9.2384L4.99995 9.23821Z" fill="white"/>
</svg>
