<svg width="34" height="30" viewBox="0 0 34 30" fill="none" xmlns="http://www.w3.org/2000/svg">
<path d="M31.5721 2.53395C30.2107 1.16624 28.111 -0.0277965 25.1362 0.000709957C22.6858 0.175231 21.0231 0.997309 19.8124 2.09086L19.8615 13.871H16.311L17.5844 24.2748L11.0177 9.36867H16.0242L14.6095 2.42805C13.2451 1.02807 11.3039 -0.0296763 8.37518 0.000635357C3.98447 0.279457 1.36088 2.93989 0.409204 6.26996C-0.750914 10.3295 0.740036 14.8054 2.57633 17.3521C4.47174 19.9805 7.22838 22.1644 9.64943 24.2561C12.2192 26.4758 13.8426 27.324 17.1051 30C20.3413 27.0428 25.4276 23.8838 29.6569 19.5068C31.5751 17.4395 33.2505 15.2906 33.7984 11.7167C34.3823 7.93424 33.715 4.68503 31.5716 2.53297L31.5721 2.53395Z" fill="white"/>
</svg>
