<svg width="39" height="35" viewBox="0 0 39 35" fill="none" xmlns="http://www.w3.org/2000/svg">
<path fill-rule="evenodd" clip-rule="evenodd" d="M12.5037 8.11443C10.9488 7.50722 9.23696 7.43024 7.63381 7.89541C6.03067 8.36058 4.62589 9.34191 3.63749 10.6871C2.64908 12.0323 2.13233 13.6661 2.16741 15.335C2.2025 17.0039 2.78746 18.6146 3.83153 19.917C4.8756 21.2195 6.32037 22.1409 7.94165 22.5383C9.56293 22.9357 11.27 22.7868 12.7981 22.1148C14.3261 21.4428 15.5896 20.2852 16.3924 18.8217C17.1953 17.3581 17.4926 15.6705 17.2383 14.0208C17.1947 13.7368 17.2656 13.4472 17.4355 13.2156C17.6054 12.984 17.8603 12.8293 18.1442 12.7857C18.4281 12.742 18.7177 12.8129 18.9494 12.9828C19.181 13.1527 19.3356 13.4076 19.3793 13.6915C19.7059 15.8126 19.3233 17.9823 18.2908 19.8637C17.2584 21.7451 15.6338 23.2332 13.6692 24.097C11.7046 24.9607 9.50983 25.1519 7.42547 24.6409C5.3411 24.1298 3.48369 22.9451 2.14146 21.2705C0.799227 19.5959 0.0472272 17.5252 0.0021513 15.3795C-0.0429246 13.2339 0.621444 11.1334 1.89216 9.40394C3.16288 7.67448 4.9689 6.41278 7.02996 5.81463C9.09103 5.21649 11.2919 5.31534 13.291 6.09584C13.4253 6.1462 13.5483 6.22274 13.6527 6.321C13.7572 6.41927 13.8411 6.53731 13.8996 6.66826C13.9581 6.79922 13.9899 6.94049 13.9934 7.08387C13.9968 7.22725 13.9717 7.36988 13.9196 7.50349C13.8675 7.6371 13.7893 7.75902 13.6897 7.86217C13.59 7.96533 13.4709 8.04767 13.3392 8.1044C13.2074 8.16114 13.0658 8.19115 12.9223 8.19268C12.7789 8.19422 12.6366 8.16725 12.5037 8.11335V8.11443Z" fill="#205072"/>
<path fill-rule="evenodd" clip-rule="evenodd" d="M8.66357 33.585V24.9216C8.66357 24.6344 8.77767 24.3589 8.98076 24.1558C9.18385 23.9527 9.4593 23.8386 9.74651 23.8386C10.0337 23.8386 10.3092 23.9527 10.5123 24.1558C10.7153 24.3589 10.8294 24.6344 10.8294 24.9216V33.585C10.8294 33.8723 10.7153 34.1477 10.5123 34.3508C10.3092 34.5539 10.0337 34.668 9.74651 34.668C9.4593 34.668 9.18385 34.5539 8.98076 34.3508C8.77767 34.1477 8.66357 33.8723 8.66357 33.585Z" fill="#205072"/>
<path fill-rule="evenodd" clip-rule="evenodd" d="M5.41479 28.1704C5.41479 27.8832 5.52889 27.6077 5.73198 27.4046C5.93507 27.2015 6.21052 27.0874 6.49773 27.0874H12.9953C13.2825 27.0874 13.558 27.2015 13.7611 27.4046C13.9642 27.6077 14.0783 27.8832 14.0783 28.1704C14.0783 28.4576 13.9642 28.733 13.7611 28.9361C13.558 29.1392 13.2825 29.2533 12.9953 29.2533H6.49773C6.21052 29.2533 5.93507 29.1392 5.73198 28.9361C5.52889 28.733 5.41479 28.4576 5.41479 28.1704Z" fill="#205072"/>
<path fill-rule="evenodd" clip-rule="evenodd" d="M24.8015 7.87943C23.6014 7.54062 22.3362 7.50312 21.1181 7.77025C19.9001 8.03737 18.7667 8.60087 17.8185 9.4108C16.8703 10.2207 16.1365 11.2521 15.6823 12.4134C15.228 13.5748 15.0673 14.8302 15.2143 16.0686C15.2319 16.2102 15.2213 16.3539 15.1832 16.4914C15.145 16.6288 15.0801 16.7575 14.9921 16.8698C14.9041 16.9821 14.7948 17.0759 14.6704 17.1459C14.546 17.2158 14.4091 17.2605 14.2674 17.2773C14.1257 17.2942 13.9821 17.2828 13.8448 17.244C13.7075 17.2051 13.5792 17.1395 13.4674 17.051C13.3555 16.9624 13.2622 16.8526 13.1929 16.7279C13.1236 16.6031 13.0797 16.4659 13.0636 16.3242C12.8106 14.193 13.2681 12.0379 14.3651 10.1933C15.4621 8.34867 17.1372 6.91773 19.1306 6.1225C21.124 5.32728 23.3241 5.21223 25.3896 5.79522C27.455 6.3782 29.2703 7.62662 30.5537 9.34675C31.8371 11.0669 32.5169 13.1625 32.4875 15.3085C32.4582 17.4544 31.7213 19.5307 30.3914 21.215C29.0614 22.8994 27.2126 24.0977 25.132 24.624C23.0514 25.1502 20.8552 24.9751 18.8844 24.1256C18.7537 24.0694 18.6355 23.9879 18.5363 23.886C18.4372 23.784 18.3591 23.6636 18.3065 23.5314C18.2002 23.2646 18.2044 22.9664 18.318 22.7026C18.4316 22.4388 18.6453 22.231 18.9122 22.1247C19.179 22.0185 19.4772 22.0227 19.741 22.1363C20.6942 22.5494 21.7222 22.7622 22.7612 22.7615C23.8001 22.7607 24.8279 22.5465 25.7805 22.132C26.7332 21.7175 27.5906 21.1116 28.2993 20.3519C29.0081 19.5923 29.5532 18.6951 29.9007 17.716C30.2482 16.7369 30.3908 15.6968 30.3196 14.6603C30.2484 13.6238 29.9649 12.613 29.4868 11.6906C29.0086 10.7682 28.346 9.95393 27.54 9.29832C26.7341 8.64272 25.8019 8.15976 24.8015 7.87943Z" fill="#205072"/>
<path fill-rule="evenodd" clip-rule="evenodd" d="M29.0151 9.98465C28.812 9.78157 28.698 9.50617 28.698 9.21901C28.698 8.93186 28.812 8.65646 29.0151 8.45338L37.1371 0.33137C37.237 0.227939 37.3565 0.145438 37.4886 0.0886825C37.6207 0.031927 37.7628 0.00205333 37.9066 0.000803827C38.0504 -0.00044568 38.193 0.0269547 38.3261 0.0814056C38.4592 0.135857 38.5801 0.216268 38.6818 0.317947C38.7834 0.419627 38.8639 0.540538 38.9183 0.673627C38.9728 0.806716 39.0002 0.949316 38.9989 1.09311C38.9977 1.2369 38.9678 1.379 38.911 1.51112C38.8543 1.64325 38.7718 1.76274 38.6683 1.86264L30.5463 9.98465C30.3433 10.1877 30.0679 10.3017 29.7807 10.3017C29.4935 10.3017 29.2181 10.1877 29.0151 9.98465Z" fill="#205072"/>
<path fill-rule="evenodd" clip-rule="evenodd" d="M37.8207 7.59462C37.6785 7.59278 37.538 7.56295 37.4073 7.50682C37.2766 7.4507 37.1583 7.36938 37.059 7.26751C36.9598 7.16564 36.8815 7.04521 36.8288 6.91311C36.7761 6.78101 36.75 6.63982 36.7518 6.49761L36.806 2.19402L32.5024 2.24817C32.2152 2.25191 31.9382 2.14139 31.7325 1.94094C31.5268 1.74049 31.4091 1.46653 31.4054 1.17932C31.4016 0.892104 31.5121 0.615172 31.7126 0.409442C31.913 0.203712 32.187 0.0860365 32.4742 0.0823027L39 0L38.9177 6.52468C38.916 6.66699 38.8863 6.80757 38.8302 6.93838C38.7741 7.06919 38.6928 7.18767 38.5909 7.28703C38.4891 7.3864 38.3686 7.46472 38.2364 7.51749C38.1043 7.57027 37.963 7.59648 37.8207 7.59462Z" fill="#205072"/>
</svg>
