<svg width="27" height="30" viewBox="0 0 27 30" fill="none" xmlns="http://www.w3.org/2000/svg">
<path d="M27.0001 10.7069C27.0001 11.4781 26.3748 12.1034 25.6036 12.1034C24.8324 12.1034 24.207 11.4781 24.207 10.7069C24.207 9.93542 24.8324 9.3103 25.6036 9.3103C26.3748 9.3103 27.0001 9.93542 27.0001 10.7069Z" fill="white"/>
<path d="M2.7931 10.7069C2.7931 11.4781 2.16776 12.1034 1.39655 12.1034C0.625335 12.1034 0 11.4781 0 10.7069C0 9.93542 0.625335 9.3103 1.39655 9.3103C2.16776 9.3103 2.7931 9.93542 2.7931 10.7069Z" fill="white"/>
<path d="M26.9999 20.2678C26.9999 15.9036 24.8855 13.5 21.046 13.5H20.449C20.2218 13.8263 19.9735 14.1374 19.7056 14.431H21.0462C24.379 14.431 26.069 16.3947 26.069 20.2678V29.3276H26.0688C26.0688 29.5848 26.2772 29.7931 26.5343 29.7931C26.7914 29.7931 26.9998 29.5848 26.9998 29.3276L26.9999 20.2678Z" fill="white"/>
<path d="M4.83019e-05 20.2678V29.3276C4.83019e-05 29.5848 0.208493 29.7931 0.465565 29.7931C0.722636 29.7931 0.931081 29.5848 0.931081 29.3276V20.2678C0.931081 16.3949 2.62088 14.431 5.95387 14.431H7.2945H7.2943C7.02641 14.1374 6.77807 13.8263 6.55091 13.5H5.95382C2.11435 13.5 0 15.9034 0 20.2678H4.83019e-05Z" fill="white"/>
<path d="M13.5001 0C9.26394 0 5.81885 3.65433 5.81885 8.14627C5.81885 12.6382 9.26367 16.2925 13.5001 16.2925C17.7366 16.2925 21.1814 12.6382 21.1814 8.14627C21.1814 3.65433 17.7366 0 13.5001 0ZM8.86598 5.56066C8.79117 5.31439 8.92958 5.0542 9.17543 4.97874C9.86184 4.74785 10.5156 4.43028 11.1214 4.03377C11.2245 3.96539 11.3505 3.94087 11.4716 3.9656C11.5928 3.99013 11.6992 4.06203 11.7676 4.16511C11.8357 4.26819 11.8602 4.39413 11.8355 4.51529C11.8108 4.63644 11.7389 4.74285 11.6358 4.81101C10.9552 5.25866 10.2189 5.61463 9.44558 5.87005C9.40173 5.88397 9.35622 5.89104 9.3105 5.89104C9.10559 5.89083 8.9252 5.75658 8.86597 5.56061L8.86598 5.56066ZM11.2727 7.96969C11.2168 7.89987 10.7258 7.35287 9.79244 7.86038L9.79223 7.86017C9.56675 7.98299 9.28432 7.89966 9.16153 7.67397C9.03871 7.44848 9.12225 7.16605 9.34773 7.04326C10.6815 6.31945 11.6707 6.95951 12.0083 7.39696V7.39717C12.1635 7.60188 12.125 7.89344 11.922 8.05118C11.7196 8.20518 11.4309 8.16901 11.2728 7.96972L11.2727 7.96969ZM13.5001 13.7325C13.0681 13.7325 12.6537 13.5609 12.348 13.2554C12.0425 12.9497 11.8708 12.5353 11.8708 12.1032C11.8708 11.6712 12.0425 11.2568 12.348 10.9511C12.6537 10.6456 13.0681 10.4739 13.5001 10.4739C13.9322 10.4739 14.3466 10.6456 14.6523 10.9511C14.9578 11.2568 15.1294 11.6712 15.1294 12.1032C15.129 12.5353 14.9571 12.9492 14.6517 13.2548C14.3462 13.5603 13.9322 13.7321 13.5001 13.7326L13.5001 13.7325ZM17.8411 7.67389C17.7819 7.78258 17.6819 7.86321 17.563 7.89813C17.4444 7.93304 17.3165 7.91953 17.2081 7.8601C16.2328 7.33182 15.751 7.93699 15.7324 7.96484C15.6436 8.07935 15.5071 8.14627 15.3622 8.14648C15.2596 8.14689 15.1598 8.11343 15.0783 8.05108C14.8753 7.89335 14.8369 7.60178 14.9921 7.39707C15.3296 6.9594 16.3211 6.31931 17.6526 7.04337V7.04316C17.8779 7.16598 17.9621 7.44758 17.8411 7.67387L17.8411 7.67389ZM18.1343 5.56055C18.0751 5.75653 17.8947 5.89078 17.6898 5.89098C17.6441 5.89098 17.5986 5.88392 17.5547 5.87C16.7814 5.61458 16.0451 5.2586 15.3645 4.81096C15.2614 4.7428 15.1895 4.63639 15.1648 4.51523C15.14 4.39407 15.1646 4.26813 15.2327 4.16506C15.3011 4.06198 15.4075 3.99007 15.5287 3.96555C15.6498 3.94082 15.7758 3.96534 15.8788 4.03371C16.4842 4.43107 17.1382 4.7488 17.8249 4.97868C17.9431 5.01443 18.0424 5.0961 18.1006 5.20521C18.1586 5.31452 18.1709 5.44233 18.1343 5.56058L18.1343 5.56055Z" fill="white"/>
<path d="M7.58566 17.6003L8.42109 17.3428L8.68855 18.2528H8.68876C8.72367 18.3723 8.80535 18.4729 8.91508 18.5319C9.0248 18.5907 9.15386 18.6032 9.27273 18.5664L9.75321 18.4178H9.75342C10.0793 18.0751 10.4332 17.7601 10.8112 17.4757C10.7007 17.2972 10.4831 17.2164 10.2825 17.2794L9.44876 17.5373L9.1813 16.6274L9.18151 16.6276C9.14638 16.5081 9.06492 16.4075 8.95519 16.3487C8.84546 16.2897 8.71661 16.2772 8.59753 16.3138L7.31111 16.7105H7.31132C7.06567 16.7862 6.92789 17.0468 7.00375 17.2925C7.07939 17.5381 7.34 17.6759 7.58567 17.6002L7.58566 17.6003Z" fill="white"/>
<path d="M19.4145 22.4343L18.579 22.6918L18.3116 21.7817H18.3114C18.2764 21.6623 18.1948 21.5617 18.085 21.5026C17.9753 21.4438 17.8463 21.4314 17.7274 21.4681L16.894 21.7258L16.628 20.8173L16.6278 20.8175C16.5927 20.6978 16.5112 20.5972 16.4013 20.5382C16.2914 20.4794 16.1625 20.4669 16.0434 20.5037L15.824 20.5716C15.8059 20.9162 15.755 21.2582 15.6716 21.5933L15.8672 21.5328L16.1332 22.4414V22.4412C16.1683 22.5609 16.25 22.6612 16.3597 22.7203C16.4695 22.7793 16.5983 22.7918 16.7176 22.7552L17.5514 22.4973L17.8188 23.4071H17.8186C17.8537 23.5266 17.9352 23.627 18.0449 23.686C18.1547 23.7448 18.2835 23.7575 18.4026 23.7207L19.689 23.324H19.6888C19.9345 23.2484 20.0722 22.9877 19.9964 22.7421C19.9207 22.4964 19.6601 22.3587 19.4145 22.4343L19.4145 22.4343Z" fill="white"/>
<path d="M19.689 16.7103L18.4028 16.3136C18.2837 16.277 18.1549 16.2895 18.0452 16.3485C17.9354 16.4073 17.854 16.5079 17.8188 16.6274L17.5514 17.5372L16.7176 17.2793L16.7178 17.2791C16.5985 17.2425 16.4697 17.255 16.3599 17.314C16.2502 17.373 16.1685 17.4734 16.1334 17.5931L15.8674 18.5017L15.575 18.4113L15.5571 18.7729V18.7727C15.6373 18.9888 15.6997 19.2114 15.7433 19.4377L16.0436 19.5306C16.1627 19.5676 16.2918 19.5551 16.4015 19.4961C16.5114 19.4371 16.5929 19.3365 16.628 19.217L16.894 18.3084L17.7274 18.5661H17.7276C17.8467 18.6029 17.9755 18.5905 18.0853 18.5316C18.195 18.4726 18.2767 18.372 18.3118 18.2525L18.5792 17.3425L19.4147 17.6C19.6603 17.6757 19.9209 17.5379 19.9968 17.2922C20.0724 17.0466 19.9346 16.786 19.689 16.7103L19.689 16.7103Z" fill="white"/>
</svg>
