<svg width="37" height="28" viewBox="0 0 37 28" fill="none" xmlns="http://www.w3.org/2000/svg">
<path d="M24.7188 3.16667H37M24.7188 24.8333H35.5H37M24.7188 14H31.9375M9.625 14C7.90938 14 6.26403 13.3152 5.0509 12.0962C3.83778 10.8772 3.15625 9.22391 3.15625 7.5C3.15625 5.77609 3.83778 4.12279 5.0509 2.90381C6.26403 1.68482 7.90938 1 9.625 1C11.3406 1 12.986 1.68482 14.1991 2.90381C15.4122 4.12279 16.0938 5.77609 16.0938 7.5C16.0938 9.22391 15.4122 10.8772 14.1991 12.0962C12.986 13.3152 11.3406 14 9.625 14ZM18.25 27V22.6667C18.25 17.7917 14.3968 14 9.54738 14H9.66381C4.81225 14 1 17.7917 1 22.6667V27H18.25Z" stroke="#205072" stroke-width="2"/>
</svg>
