<svg width="20" height="35" viewBox="0 0 20 35" fill="none" xmlns="http://www.w3.org/2000/svg">
<path d="M11.1487 17.129L15.7606 9.23868C16.8495 9.48339 17.9902 9.19385 18.8267 8.45971C19.6633 7.7259 20.0936 6.63743 19.9829 5.53458C19.8721 4.4314 19.2343 3.44865 18.2683 2.89313C17.4838 2.43805 16.5501 2.30915 15.6704 2.53423C15.4282 1.65584 14.8451 0.907931 14.0487 0.455502C13.2524 0.00272077 12.3081 -0.118335 11.4221 0.118533C10.5362 0.355719 9.78102 0.931843 9.32176 1.72063C9.01139 2.24539 8.84831 2.84308 8.84929 3.45162C8.85292 4.31175 9.17712 5.13973 9.75929 5.77607L5.05673 13.8113C4.89694 14.0855 4.9457 14.4326 5.17501 14.6528L6.71 16.1427C6.97127 16.3933 7.38245 16.4024 7.65457 16.1633L8.70332 15.2459L9.96748 17.1634H9.96781C10.0966 17.3584 10.3164 17.4752 10.5513 17.4739H10.5651C10.807 17.468 11.0281 17.3372 11.1486 17.1291L11.1487 17.129ZM3.47329 28.2614V18.4465C3.47197 18.2067 3.59718 17.9839 3.80276 17.8582C4.00868 17.7329 4.26534 17.7231 4.48049 17.8327L6.54331 18.8535L6.98085 17.5361V17.5364C7.09649 17.1958 7.45627 17.0005 7.80749 17.0879L9.8914 17.6051C10.2018 17.68 10.4202 17.9568 10.4192 18.2741V28.2616C11.434 28.5783 12.2465 29.3392 12.6244 30.3266C13.002 31.3139 12.9035 32.4187 12.3565 33.3247C11.8096 34.2305 10.8746 34.8374 9.81962 34.9719C8.76464 35.1064 7.70577 34.7534 6.94633 34.0137C6.1869 34.7534 5.12794 35.1064 4.0727 34.9719C3.01772 34.8374 2.08301 34.2306 1.53612 33.3247C0.989197 32.4188 0.89036 31.3139 1.26826 30.3266C1.64584 29.3392 2.45862 28.5783 3.47345 28.2616L3.47329 28.2614ZM3.47395 13.6182C3.24134 13.6185 3.02422 13.503 2.8954 13.311L1.50632 11.2417H1.50599C1.29743 10.925 1.38508 10.5007 1.70203 10.2907C2.01931 10.0807 2.44762 10.1638 2.66179 10.4765L4.05086 12.5458H4.05119C4.19319 12.7574 4.20637 13.0293 4.08578 13.2534C3.96487 13.4778 3.72995 13.6179 3.47396 13.6182L3.47395 13.6182ZM3.47329 15.6874C3.47329 15.8703 3.39982 16.0457 3.26968 16.1749C3.13953 16.3044 2.96261 16.3771 2.77844 16.3771H0.69453H0.694859C0.311022 16.3771 0 16.0682 0 15.6874C0 15.3063 0.311022 14.9974 0.694859 14.9974H2.77843C3.16226 14.9974 3.47328 15.3063 3.47328 15.6874H3.47329ZM1.59299 17.9585C1.86547 17.6971 2.29872 17.7007 2.56659 17.967C2.83445 18.233 2.8384 18.6632 2.57515 18.9338L1.18608 20.3131H1.18575C0.913273 20.5745 0.480021 20.5709 0.212158 20.3049C-0.0557041 20.0389 -0.0596619 19.6087 0.20359 19.3378L1.59299 17.9585Z" fill="white"/>
</svg>
