<svg width="34" height="43" viewBox="0 0 34 43" fill="none" xmlns="http://www.w3.org/2000/svg">
<path d="M22.2063 5.45733H23.399V8.81418C23.399 9.07915 23.7524 9.16758 23.8848 8.94667L26.4027 4.04379C26.4911 3.86724 26.3586 3.64633 26.1818 3.64633H24.9891V0.28948C24.9891 0.0245068 24.6357 -0.0639201 24.5032 0.156993L21.9854 5.05987C21.8973 5.23642 21.9857 5.45733 22.2063 5.45733Z" fill="#1F5073"/>
<path d="M33.823 9.38855L32.7188 8.94673L33.9115 5.81049C33.9999 5.54552 33.6905 5.32461 33.4696 5.50115L29.362 9.21199C29.2295 9.34448 29.2735 9.60945 29.4504 9.65382L30.5546 10.0956L29.362 13.2319C29.2736 13.4969 29.5829 13.7178 29.8038 13.5412L33.9559 9.8751C34.044 9.69794 33.9999 9.43297 33.8231 9.3886L33.823 9.38855Z" fill="#1F5073"/>
<path d="M10.5896 8.81437V5.45752H11.7823C12.0032 5.45752 12.0916 5.23661 12.0032 5.06006L9.48536 0.156865C9.35288 -0.108108 8.99948 -0.0196811 8.99948 0.289352V3.6462H7.8068C7.58589 3.6462 7.49746 3.86711 7.58589 4.04366L10.1037 8.94654C10.2362 9.16776 10.5896 9.07933 10.5896 8.81436V8.81437Z" fill="#1F5073"/>
<path d="M4.67086 13.1872L3.47819 10.0509L4.58245 9.60911C4.75899 9.52069 4.80336 9.29977 4.67087 9.16729L0.518804 5.54581C0.297891 5.36927 -0.0111418 5.58987 0.0769776 5.85515L1.26965 8.99139L0.165397 9.43321C-0.0111495 9.52164 -0.0555175 9.74255 0.0769691 9.87504L4.22904 13.5412C4.44995 13.673 4.75898 13.4521 4.67086 13.1871V13.1872Z" fill="#1F5073"/>
<path d="M29.8921 19.1061C29.8921 17.9577 29.3178 16.9416 28.4345 16.3676C27.9486 17.6928 26.9328 19.1504 24.7683 19.9897C24.6799 20.0337 24.5918 20.0337 24.459 20.0337C24.1497 20.0337 23.8406 19.8572 23.7081 19.5038C23.5316 19.1063 23.7522 18.6205 24.15 18.4436C25.8285 17.7812 26.7559 16.6326 27.1094 14.9984C26.9769 12.7015 25.1658 10.9347 23.0017 10.9347C22.6924 10.9788 22.1184 10.8022 21.9859 10.4929C21.191 8.90277 19.2474 8.2403 17.7898 9.03529V21.5354L29.3624 21.5351C29.3624 21.5795 29.8923 19.9893 29.8923 19.106L29.8921 19.1061ZM21.2347 18.3993C21.1022 18.4877 20.9254 18.5758 20.7048 18.5758C20.4839 18.5758 20.263 18.4874 20.0864 18.2665C19.8214 17.9571 19.8655 17.4272 20.1748 17.1622C20.9698 16.5438 21.3232 15.9255 21.2791 15.3956C21.235 14.5563 20.1748 13.8495 20.1748 13.8495C19.8214 13.6285 19.6449 13.1427 19.8655 12.7452C20.0864 12.3477 20.5723 12.2153 20.9698 12.4359C21.0582 12.4799 22.7808 13.496 22.9133 15.2187C23.0014 16.3672 22.4715 17.3831 21.2348 18.3992L21.2347 18.3993Z" fill="#1F5073"/>
<path d="M4.62663 21.5795H16.155V9.07935C14.6974 8.3285 12.7538 8.99092 11.9589 10.537C11.8265 10.8463 11.5171 11.0229 11.164 10.9788L10.8991 10.9347C8.73465 10.9347 6.96793 12.7458 6.83542 14.9984C7.14476 16.6326 8.11619 17.7812 9.75072 18.4436C10.1925 18.6202 10.3691 19.1061 10.1925 19.5038C10.1041 19.8131 9.75072 20.0338 9.4417 20.0338C9.35327 20.0338 9.26515 19.9897 9.13236 19.9897C6.96794 19.1504 5.95211 17.6928 5.51025 16.3676C4.58252 16.9419 4.00854 17.9577 4.00854 19.1061C4.09666 19.9894 4.6266 21.5795 4.6266 21.5795L4.62663 21.5795ZM12.9748 12.4363C13.3282 12.2154 13.8581 12.3478 14.079 12.7013C14.2999 13.0987 14.1675 13.5846 13.8141 13.8055C13.5047 13.982 12.7098 14.6004 12.6657 15.3516C12.6217 15.9259 13.0191 16.5 13.77 17.1183C14.1234 17.4276 14.1674 17.9132 13.8584 18.2225C13.6818 18.4434 13.505 18.5319 13.24 18.5319C13.0635 18.5319 12.8866 18.4878 12.7101 18.3553C11.5174 17.3836 10.9434 16.3233 11.0315 15.1751C11.1637 13.4965 12.8867 12.4807 12.9748 12.4363H12.9748Z" fill="#1F5073"/>
<path d="M30.2895 23.1697H3.74329C3.12492 23.1697 2.55061 23.6115 2.4181 24.2298C2.10876 25.82 2.02064 27.5426 2.28562 29.3092C3.47829 36.8181 10.4571 42.5161 18.0543 41.9861C25.7841 41.4561 31.8796 35.0072 31.8796 27.1449C31.8796 26.1732 31.7912 25.2013 31.5702 24.274C31.4818 23.6113 30.9075 23.1698 30.2892 23.1698L30.2895 23.1697ZM10.3246 28.735C10.3246 27.6749 11.208 26.7915 12.2682 26.7915C13.3284 26.7915 14.2118 27.6748 14.2118 28.735C14.2118 29.7953 13.3284 30.6786 12.2682 30.6786C11.208 30.7227 10.3246 29.8393 10.3246 28.735ZM20.3512 37.039C19.8213 37.2156 19.247 36.9506 19.0705 36.4206C18.7611 35.5373 17.9221 34.963 16.9945 34.963C16.0668 34.963 15.2278 35.5373 14.8744 36.4206C14.7419 36.8181 14.3444 37.0831 13.9467 37.0831C13.8142 37.0831 13.7257 37.0831 13.5933 37.039C13.0633 36.8625 12.7984 36.2441 13.019 35.7582C13.6373 34.124 15.2275 32.9754 16.9941 32.9754C18.7607 32.9754 20.351 34.0797 20.9693 35.7582C21.1464 36.2438 20.8814 36.8182 20.3512 37.039L20.3512 37.039ZM21.6764 30.7225C20.6163 30.7225 19.7329 29.8392 19.7329 28.779C19.7329 27.7187 20.6162 26.8354 21.6764 26.8354C22.7367 26.8354 23.62 27.7187 23.62 28.779C23.62 29.8392 22.7807 30.7225 21.6764 30.7225Z" fill="#1F5073"/>
</svg>
