<svg width="15" height="15" viewBox="0 0 15 15" fill="none" xmlns="http://www.w3.org/2000/svg">
<path d="M6.58473 1.29256C7.11949 0.90248 7.88051 0.90248 8.41527 1.29256L13.4528 4.96724C13.7987 5.21959 14 5.60104 14 6.0043V12.6704C14 13.4047 13.3452 14 12.5375 14H10.5875C9.77981 14 9.125 13.4047 9.125 12.6704V9.12472C9.125 8.87995 8.90673 8.68151 8.6375 8.68151H6.3625C6.09327 8.68151 5.875 8.87995 5.875 9.12472V12.6704C5.875 13.4047 5.22019 14 4.4125 14H2.4625C1.65478 14 1 13.4047 1 12.6704V6.0043C1 5.60104 1.20129 5.21959 1.54724 4.96724L6.58473 1.29256ZM7.80511 1.98394C7.62682 1.85391 7.37318 1.85391 7.19489 1.98394L2.15742 5.6586C2.04209 5.74275 1.975 5.86986 1.975 6.0043V12.6704C1.975 12.9151 2.19326 13.1136 2.4625 13.1136H4.4125C4.68174 13.1136 4.9 12.9151 4.9 12.6704V9.12472C4.9 8.39041 5.55481 7.79509 6.3625 7.79509H8.6375C9.44519 7.79509 10.1 8.39041 10.1 9.12472V12.6704C10.1 12.9151 10.3183 13.1136 10.5875 13.1136H12.5375C12.8067 13.1136 13.025 12.9151 13.025 12.6704V6.0043C13.025 5.86986 12.9579 5.74275 12.8426 5.6586L7.80511 1.98394Z" fill="black" fill-opacity="0.8" stroke="black" stroke-opacity="0.8" stroke-width="0.6"/>
</svg>
