<svg width="12" height="12" viewBox="0 0 12 12" fill="none" xmlns="http://www.w3.org/2000/svg">
<path d="M6.65668e-05 4.49201C-0.00158708 4.59336 0.0276036 4.69281 0.0837682 4.77719C0.139933 4.86157 0.220418 4.92689 0.314553 4.96448L5.11485 6.88485L7.03527 11.6855C7.07236 11.7784 7.13645 11.858 7.21925 11.914C7.30205 11.9701 7.39975 12 7.49975 12H7.50775C7.60901 11.9984 7.7074 11.9661 7.7899 11.9074C7.87239 11.8486 7.9351 11.7662 7.96973 11.671L11.9696 0.671767C12.0023 0.582286 12.0088 0.485312 11.9883 0.392266C11.9677 0.29922 11.921 0.213976 11.8537 0.146575C11.7863 0.0791731 11.7011 0.0324201 11.6081 0.0118221C11.5151 -0.00877588 11.4181 -0.00236106 11.3286 0.0303109L0.329053 4.03004C0.23384 4.06475 0.151409 4.12755 0.0926642 4.21013C0.0339198 4.29271 0.00163009 4.39068 6.65668e-05 4.49201Z" fill="#B3B2B2"/>
</svg>
