<svg width="34" height="34" viewBox="0 0 34 34" fill="none" xmlns="http://www.w3.org/2000/svg">
<path fill-rule="evenodd" clip-rule="evenodd" d="M16.8772 9.91952H19.3611C19.6116 9.91952 19.8518 9.82001 20.0289 9.64289C20.2061 9.46578 20.3056 9.22555 20.3056 8.97507C20.3056 8.72459 20.2061 8.48437 20.0289 8.30725C19.8518 8.13013 19.6116 8.03063 19.3611 8.03063H16.8772C16.5476 8.03063 16.1642 8.08446 15.7911 8.26674C14.4462 8.92313 13.685 10.0583 13.2666 11.1643C13.125 11.5373 13.0201 11.9151 12.9427 12.2806H14.8863C14.9288 12.1295 14.977 11.9803 15.0327 11.832C15.3368 11.0273 15.8308 10.3492 16.6194 9.9639C16.7013 9.93024 16.7897 9.91508 16.8782 9.91952H16.8772ZM11.3333 13.2251C10.812 13.2251 10.3766 13.6557 10.5183 14.1582C11.0632 16.1028 13.2817 17.6158 16.0556 17.8991V19.3706C15.3992 19.3866 14.7173 19.4395 14.1383 19.6076C13.6869 19.7398 13.2081 19.9646 12.8416 20.3764C12.4582 20.8071 12.2778 21.3511 12.2778 21.9584C12.2778 22.5656 12.4572 23.1106 12.8407 23.5422C13.2071 23.9549 13.6859 24.1816 14.1383 24.3138C14.4406 24.4016 14.7711 24.4583 15.1111 24.4942V22.593C14.9612 22.5727 14.8128 22.5417 14.6672 22.5005C14.4122 22.4249 14.2998 22.3418 14.2536 22.2889C14.2233 22.2549 14.1667 22.1784 14.1667 21.9584C14.1667 21.7411 14.2233 21.6656 14.2517 21.6325C14.2989 21.5796 14.4103 21.4956 14.6672 21.421C15.029 21.3161 15.4955 21.2765 16.0556 21.2613V26.4473H13.2222V28.3362H20.7778V26.4473H17.9445V21.2179C18.9852 21.1367 19.8286 20.9081 20.4633 20.4992C21.3558 19.9231 21.7222 19.0665 21.7222 18.157C21.7222 17.663 21.6136 17.188 21.3728 16.7677C22.4343 16.0971 23.1927 15.1886 23.4817 14.1582C23.6234 13.6557 23.189 13.2251 22.6667 13.2251H11.3333ZM19.4395 18.9106C19.1722 19.0835 18.7085 19.2478 17.9445 19.3215V17.8991C18.5117 17.8423 19.0719 17.7297 19.6171 17.5629C19.7729 17.7112 19.8333 17.8916 19.8333 18.1579C19.8333 18.5073 19.7276 18.7255 19.4395 18.9106Z" fill="#1F5073"/>
<path fill-rule="evenodd" clip-rule="evenodd" d="M24.5556 24.5556H34V9.44444H24.5556V0H9.44444V9.44444H0V24.5556H9.44444V34H24.5556V24.5556ZM22.6667 32.1111V22.6667H32.1111V11.3333H22.6667V1.88889H11.3333V11.3333H1.88889V22.6667H11.3333V32.1111H22.6667Z" fill="#1F5073"/>
</svg>
