<svg width="30" height="50" viewBox="0 0 30 50" fill="none" xmlns="http://www.w3.org/2000/svg">
<path fill-rule="evenodd" clip-rule="evenodd" d="M24.372 0.807859C25.2062 1.02152 26.0446 1.22252 26.8745 1.4524C27.9407 1.74718 28.0036 1.87142 27.8037 2.92781C27.3317 5.42646 26.89 7.93139 26.3916 10.4242C26.0896 11.9301 26.3287 13.328 26.9987 14.6728C27.4618 15.6038 27.9629 16.5151 28.4053 17.4567C29.3691 19.5091 29.4169 21.5582 28.3029 23.5817C26.9323 26.072 23.3738 26.8218 21.1446 25.0694C20.5298 24.5851 19.9677 24.0316 19.3766 23.5148C18.6139 22.8465 17.7639 22.7547 16.8532 23.1476C16.2119 23.4246 15.5882 23.7451 14.9361 23.9916C11.567 25.264 8.14191 22.5909 8.56193 18.9638C8.85809 16.4114 9.94143 14.2609 12.1015 12.7838C12.6798 12.3886 13.231 11.9466 13.8342 11.596C16.3137 10.1542 17.8434 7.9562 18.7408 5.25305C19.2 3.87063 19.6254 2.47666 20.0551 1.0835C20.4064 -0.0568325 20.5493 -0.149818 21.7467 0.138649C22.6258 0.349537 23.4976 0.582982 24.3721 0.807727L24.372 0.807859Z" fill="#1F5073"/>
<path fill-rule="evenodd" clip-rule="evenodd" d="M23.8455 36.7652C23.6052 37.4576 23.3428 37.9217 23.2908 38.408C22.9357 41.6802 22.5887 44.9531 22.3169 48.2329C22.1788 49.9021 22.2525 49.9112 20.6471 49.9148C19.1314 49.9184 17.6172 49.9263 16.1027 49.9112C14.9262 49.8998 14.8928 49.8297 14.8028 48.6348C14.5691 45.5173 14.2982 42.4037 14.075 39.2855C13.9442 37.4523 13.2766 35.931 11.9305 34.6664C10.9333 33.7315 10.1321 32.6204 9.84645 31.2007C9.48586 29.4167 10.0953 28.7465 11.8598 29.112C13.3627 29.425 14.7007 29.0962 15.9198 28.1901C16.2827 27.9203 16.6348 27.6314 16.9705 27.3264C18.0255 26.3689 19.1651 26.2209 20.3343 27.0403C22.4676 28.5371 24.5989 28.3868 26.8148 27.2326C27.9824 26.6245 28.7684 27.1503 28.6912 28.5019C28.6407 29.3953 28.4206 30.3108 28.102 31.1493C27.838 31.8409 27.6552 32.4142 27.9452 33.1648C28.1225 33.6254 28.147 34.2948 27.949 34.736C26.969 36.9051 27.2057 39.2372 26.9829 41.5024C26.7446 43.9068 26.6247 46.324 26.4271 48.7341C26.3398 49.8095 25.619 50.2669 24.6486 49.8435C24.4251 49.7458 24.2058 49.3533 24.1953 49.0878C24.1642 48.2561 24.2671 47.4208 24.2597 46.5868C24.2306 43.5057 24.179 40.4251 24.1285 37.3436C24.1254 37.2415 24.0319 37.1414 23.8455 36.7651L23.8455 36.7652Z" fill="#1F5073"/>
<path fill-rule="evenodd" clip-rule="evenodd" d="M6.45331 19.3927C6.63341 17.833 7.11277 16.4268 7.94728 15.2291L5.79501 11.6503L5.88855 16.1455L1.91549 14.1921L4.37828 17.9221L0 18.4677L4.04998 20.2482L0.65562 23.1211L5.00757 22.3864L3.67546 26.6734L6.94799 23.6568L8.10045 27.9974L9.08867 24.2773C7.37152 23.4527 6.19691 21.6026 6.45348 19.3927L6.45331 19.3927Z" fill="#1F5073"/>
</svg>
