<svg width="65" height="11" viewBox="0 0 65 11" fill="none" xmlns="http://www.w3.org/2000/svg">
<path d="M5.46351 0.228736L6.48059 3.48282C6.58201 3.68638 6.68414 3.7878 6.88699 3.7878H10.0388C10.4453 3.7878 10.5474 4.29634 10.2424 4.4999L7.70044 6.32975C7.59902 6.43117 7.49688 6.63473 7.59902 6.73615L8.61609 9.7867C8.71752 10.1931 8.31111 10.4988 8.00613 10.1931L5.46416 8.36325C5.36274 8.26183 5.15918 8.26183 4.95563 8.36325L2.41366 10.1931C2.10868 10.3967 1.70156 10.0917 1.80369 9.7867L2.82077 6.73615C2.9222 6.5326 2.82077 6.43117 2.71935 6.32975L0.177382 4.4999C-0.127599 4.29634 -0.0261757 3.7878 0.380938 3.7878H3.5328C3.73635 3.7878 3.83778 3.68638 3.9392 3.48282L4.95628 0.228736C4.95486 -0.0762454 5.36198 -0.0762454 5.4634 0.228736H5.46351Z" fill="#FFDF39"/>
<path d="M18.8834 0.228736L19.9005 3.48282C20.0019 3.68638 20.1041 3.7878 20.3069 3.7878H23.4588C23.8652 3.7878 23.9673 4.29634 23.6623 4.4999L21.1204 6.32975C21.0189 6.43117 20.9168 6.63473 21.0189 6.73615L22.036 9.7867C22.1374 10.1931 21.731 10.4988 21.4261 10.1931L18.8841 8.36325C18.7827 8.26183 18.5791 8.26183 18.3755 8.36325L15.8336 10.1931C15.5286 10.3967 15.1215 10.0917 15.2236 9.7867L16.2407 6.73615C16.3421 6.5326 16.2407 6.43117 16.1393 6.32975L13.5973 4.4999C13.2923 4.29634 13.3937 3.7878 13.8009 3.7878H16.9527C17.1563 3.7878 17.2577 3.68638 17.3591 3.48282L18.3762 0.228736C18.3748 -0.0762454 18.7819 -0.0762454 18.8833 0.228736H18.8834Z" fill="#FFDF39"/>
<path d="M32.3029 0.228736L33.3199 3.48282C33.4214 3.68638 33.5235 3.7878 33.7263 3.7878H36.8782C37.2846 3.7878 37.3867 4.29634 37.0818 4.4999L34.5398 6.32975C34.4384 6.43117 34.3362 6.63473 34.4384 6.73615L35.4554 9.7867C35.5569 10.1931 35.1505 10.4988 34.8455 10.1931L32.3035 8.36325C32.2021 8.26183 31.9985 8.26183 31.795 8.36325L29.253 10.1931C28.948 10.3967 28.5409 10.0917 28.6431 9.7867L29.6601 6.73615C29.7615 6.5326 29.6601 6.43117 29.5587 6.32975L27.0167 4.4999C26.7118 4.29634 26.8132 3.7878 27.2203 3.7878H30.3722C30.5757 3.7878 30.6771 3.68638 30.7786 3.48282L31.7956 0.228736C31.7942 -0.0762454 32.2013 -0.0762454 32.3028 0.228736H32.3029Z" fill="#FFDF39"/>
<path d="M45.7223 0.228736L46.7394 3.48282C46.8408 3.68638 46.9429 3.7878 47.1458 3.7878H50.2976C50.704 3.7878 50.8062 4.29634 50.5012 4.4999L47.9592 6.32975C47.8578 6.43117 47.7557 6.63473 47.8578 6.73615L48.8749 9.7867C48.9763 10.1931 48.5699 10.4988 48.2649 10.1931L45.723 8.36325C45.6215 8.26183 45.418 8.26183 45.2144 8.36325L42.6724 10.1931C42.3675 10.3967 41.9604 10.0917 42.0625 9.7867L43.0796 6.73615C43.181 6.5326 43.0796 6.43117 42.9781 6.32975L40.4362 4.4999C40.1312 4.29634 40.2326 3.7878 40.6397 3.7878H43.7916C43.9951 3.7878 44.0966 3.68638 44.198 3.48282L45.2151 0.228736C45.2137 -0.0762454 45.6209 -0.0762454 45.7223 0.228736Z" fill="#FFDF39"/>
<path d="M59.1422 0.228736L60.1593 3.48282C60.2607 3.68638 60.3629 3.7878 60.5657 3.7878H63.7176C64.124 3.7878 64.2261 4.29634 63.9211 4.4999L61.3792 6.32975C61.2777 6.43117 61.1756 6.63473 61.2777 6.73615L62.2948 9.7867C62.3962 10.1931 61.9898 10.4988 61.6848 10.1931L59.1429 8.36325C59.0415 8.26183 58.8379 8.26183 58.6343 8.36325L56.0924 10.1931C55.7874 10.3967 55.3803 10.0917 55.4824 9.7867L56.4995 6.73615C56.6009 6.5326 56.4995 6.43117 56.3981 6.32975L53.8561 4.4999C53.5511 4.29634 53.6525 3.7878 54.0597 3.7878H57.2115C57.4151 3.7878 57.5165 3.68638 57.6179 3.48282L58.635 0.228736C58.6336 -0.0762454 59.0408 -0.0762454 59.1422 0.228736Z" fill="#CED4DC"/>
</svg>
