<svg width="22" height="22" viewBox="0 0 22 22" fill="none" xmlns="http://www.w3.org/2000/svg">
<path d="M21.1768 20.2879L21.3537 20.111L21.1766 19.9342L16.1925 14.9581C17.5649 13.2781 18.2622 11.1432 18.142 8.97166C18.0175 6.72255 17.0258 4.60933 15.3754 3.07632C13.725 1.54332 11.5444 0.709962 9.29226 0.75148C7.04009 0.792998 4.89175 1.70616 3.29895 3.29895C1.70616 4.89175 0.792998 7.04009 0.75148 9.29226C0.709962 11.5444 1.54332 13.725 3.07632 15.3754C4.60933 17.0258 6.72255 18.0175 8.97166 18.142C11.1432 18.2622 13.2781 17.5649 14.9581 16.1925L19.9342 21.1766L20.111 21.3537L20.2879 21.1768L21.1768 20.2879ZM9.48582 16.4094C8.11906 16.4094 6.78283 16.0048 5.64554 15.2466C4.50595 14.4868 3.61732 13.406 3.09208 12.1411C2.56684 10.8762 2.42859 9.48388 2.69483 8.14035C2.96106 6.79683 3.61981 5.56246 4.58773 4.59341C5.55566 3.62436 6.78927 2.96418 8.13248 2.69639C9.47569 2.4286 10.8682 2.56524 12.1337 3.08902C13.3992 3.61279 14.481 4.50017 15.2421 5.63888C16.0031 6.77751 16.4094 8.11627 16.4094 9.48582C16.4073 11.3214 15.6772 13.0812 14.3792 14.3792C13.0812 15.6772 11.3214 16.4073 9.48582 16.4094Z" fill="#6C767E" stroke="#6C767E" stroke-width="0.5"/>
</svg>
