<svg width="27" height="36" viewBox="0 0 27 36" fill="none" xmlns="http://www.w3.org/2000/svg">
<path d="M14.3049 0C8.33838 0 3.24751 4.11009 1.92556 9.99555L1.88063 10.1953C1.43273 12.1901 0.880996 14.1858 0.241621 16.1265L0.0232853 16.7907C0.00794441 16.8356 0 16.8846 0 16.9317C0 17.1786 0.198334 17.3792 0.442422 17.3792H2.45452V22.3447H3.17307C4.12859 22.3447 5.02689 21.9687 5.70238 21.2851L6.56996 22.1626C5.66262 23.0809 4.45617 23.586 3.173 23.586H2.45445C2.45445 25.6398 4.1058 27.3102 6.13628 27.3102H6.50254C8.42453 27.3102 10.3107 26.7806 11.9566 25.7795L12.8863 25.2142V27.5487C12.8863 30.4585 12.3678 33.297 11.3429 36L17.1818 35.9997V26.0687H18.4091V35.9997H23.3182V27.0335C23.3182 26.6957 23.4091 26.3651 23.5809 26.0758C25.8177 22.3037 27 17.9856 27 13.5883V12.8416C27 5.76075 21.305 6.34553e-05 14.3051 6.34553e-05L14.3049 0ZM13.3201 3.28517C14.4295 4.40681 15.8324 5.13865 17.378 5.40296C17.2528 4.85487 17.1816 4.29267 17.1816 3.72405H18.4089C18.4089 4.66005 18.6212 5.57867 19.0156 6.41408L19.6797 4.73517L20.8193 5.1957L19.8276 7.70392C19.8311 7.70835 19.8344 7.71334 19.838 7.71749L21.3346 9.53359L20.392 10.3286L18.8954 8.51197C18.4505 7.97192 18.0903 7.37175 17.8141 6.73553L17.1945 6.63134C15.3878 6.32709 13.7482 5.47367 12.4522 4.16299L13.3201 3.28517ZM23.2196 9.78324C22.8396 11.32 21.9291 12.672 20.6552 13.5924C19.2488 14.6085 18.4086 16.2595 18.4086 18.0093V23.5861H17.1814V22.113C16.766 21.9077 16.334 21.7411 15.8933 21.5979L14.6041 23.3377L13.6223 22.5929L14.6005 21.2739C14.0334 21.1714 13.4609 21.1032 12.8859 21.1032V19.8619C14.3513 19.8619 15.8171 20.1653 17.168 20.7408C17.0981 18.9594 15.9678 17.378 14.2981 16.7745C13.6286 16.5323 13.004 16.209 12.429 15.8211L9.47863 17.3132L8.92937 16.2029L11.3642 14.9716C10.6678 14.3198 10.0849 13.557 9.63424 12.7154L8.6905 13.0344C7.46814 13.4464 6.19598 13.6551 4.90867 13.6551V12.4137C6.06364 12.4137 7.20543 12.2264 8.30205 11.857L9.01514 11.6168L8.6475 11.1524C8.03386 10.376 7.11832 9.93092 6.13601 9.93092V8.68955C7.04657 8.68955 7.91254 8.97191 8.64203 9.47785C8.61135 9.18247 8.59053 8.88432 8.59053 8.58286C8.59053 7.28438 9.08993 6.06407 9.99748 5.14744L10.8651 6.02499C10.1895 6.7083 9.81773 7.61636 9.81773 8.58286C9.81773 11.726 11.7844 14.5484 14.7109 15.6061C15.727 15.9729 16.579 16.6302 17.2145 17.4546C17.3208 16.1752 17.7906 14.9657 18.5521 13.9596C17.512 12.895 16.154 12.2111 14.6744 12.0244L12.8097 11.7886L12.962 10.5572L14.8268 10.793C15.0766 10.8246 15.3231 10.8686 15.5667 10.9241L15.3138 9.90189C14.2331 9.7808 13.2305 9.29616 12.4519 8.50836L13.3195 7.63081C13.7852 8.10131 14.3616 8.4172 14.9856 8.57376L14.7446 7.59924L15.9352 7.29887L16.9422 11.3724C17.8484 11.7648 18.6751 12.3309 19.3814 13.0428C19.56 12.8815 19.7446 12.7263 19.9416 12.5833C20.9779 11.8341 21.7192 10.7338 22.0279 9.48351L22.1077 9.16069L23.2983 9.46106L23.2196 9.78324Z" fill="white"/>
</svg>
