<svg width="39" height="36" viewBox="0 0 39 36" fill="none" xmlns="http://www.w3.org/2000/svg">
<path d="M4.22532 35.0253H5.53701C5.53701 32.6655 7.22258 30.7456 9.29516 30.7456V29.4177C6.49948 29.4177 4.22532 31.9332 4.22532 35.0253ZM5.42505 26.5815L4.93985 25.3482C2.91849 26.1635 1.21035 27.5151 0 29.2572L1.07318 30.0216C2.13597 28.4901 3.64072 27.3008 5.42505 26.5815ZM0.764232 35.0253H2.07592C2.07592 31.3025 5.3138 28.2724 9.29516 28.2724V26.9446C4.5907 26.9446 0.764232 30.5696 0.764232 35.0253ZM25.1883 0C17.5732 0 11.3781 6.27188 11.3781 13.9807V14.8272L7.43884 22.2744C7.32967 22.4803 7.33576 22.7288 7.45409 22.9289C7.57272 23.1292 7.78651 23.2521 8.01676 23.2521H11.3781V28.3107C11.3781 30.5826 13.204 32.4306 15.448 32.4306H21.2195V35.3356C21.2195 35.5119 21.2887 35.6814 21.4119 35.8061C21.5348 35.9305 21.7014 36 21.8755 36H21.8773L34.4157 35.9645C34.7768 35.9626 35.0698 35.6663 35.0698 35.3008L35.0695 23.7353C37.6066 21.1123 39 17.6597 39 13.9804C39 6.27169 32.8032 0 25.1883 0ZM16.5278 17.1752C15.6808 17.1752 14.9943 16.4803 14.9943 15.6226C14.9943 14.7653 15.6808 14.0703 16.5278 14.0703C17.375 14.0703 18.0615 14.7653 18.0615 15.6226C18.0615 16.4803 17.375 17.1752 16.5278 17.1752Z" fill="#1F5073"/>
</svg>
